<svg width="92" height="47" viewBox="0 0 92 47" fill="none" xmlns="http://www.w3.org/2000/svg">
<g id="Frame 6">
<path id="&#60;Path&#62;" d="M10.97 0C10.97 0 5.38217 6.51001 7.56708 15.5914C8.28282 18.5767 9.85244 21.2735 11.8364 23.6192C19.8854 33.1019 33.1833 40.4774 56.715 44.391C56.715 44.391 38.0554 47.878 16.1686 36.1751C13.4312 34.7075 10.8821 32.9263 8.6093 30.794C4.0009 26.454 -0.205679 20.7216 0.00778969 13.158C0.0705745 10.549 0.710979 7.95249 2.1048 5.74486C5.15614 0.903123 9.87756 0 10.97 0Z" fill="#EC8922"/>
<path id="&#60;Path&#62;_2" d="M18.8057 20.8847H92.0002" stroke="#EE8621" stroke-width="4.78634"/>
<path id="&#60;Compound Path&#62;" d="M28.2735 19.53C22.8363 19.53 20.124 15.9426 20.124 10.4235C20.124 4.72886 22.987 1.29198 28.5874 1.29198C30.7472 1.29198 32.4926 1.8188 33.8237 2.91007C35.0668 4.02643 35.77 5.55672 35.9583 7.4884H33.7734C32.9949 7.4884 32.4173 7.12464 32.0782 6.42221C31.4755 5.14279 30.3077 4.49054 28.5874 4.49054C25.2221 4.49054 23.7404 6.86123 23.7404 10.4235C23.7404 13.8855 25.1719 16.3315 28.487 16.3315C30.7472 16.3315 32.0531 15.0897 32.4424 13.1329H35.9583C35.6193 17.222 32.7563 19.53 28.2735 19.53Z" fill="white"/>
<path id="&#60;Compound Path&#62;_2" fill-rule="evenodd" clip-rule="evenodd" d="M41.2697 9.09395H37.804C38.2184 6.54764 40.0141 5.30585 43.191 5.30585C46.9957 5.30585 48.9295 6.54764 49.0048 9.09395V13.7852C49.0048 17.5858 46.7069 19.2792 42.9901 19.53C39.675 19.7934 37.3896 18.2631 37.3896 15.2151C37.465 11.9037 39.8634 11.0256 43.3542 10.687C44.8359 10.4988 45.5893 10.0598 45.5893 9.30718C45.514 8.52949 44.7857 8.14065 43.3542 8.14065C42.1236 8.14065 41.4455 8.45423 41.2697 9.09395ZM45.6396 13.6221V12.3552C44.8359 12.6939 43.8941 12.9824 42.8896 13.1831C41.5083 13.4465 40.8051 14.0987 40.8051 15.1148C40.8805 16.206 41.4455 16.7203 42.5506 16.7203C44.4718 16.7203 45.6396 15.5789 45.6396 13.6221Z" fill="white"/>
<path id="&#60;Compound Path&#62;_3" d="M63.2695 5.50655L58.41 19.2792H54.7308L49.8838 5.50655H53.7137L56.5013 15.1649L58.8997 6.73579C59.1634 5.92048 59.7284 5.50655 60.5949 5.50655H63.2695Z" fill="white"/>
<path id="&#60;Compound Path&#62;_4" d="M66.3713 1.58047C67.514 1.58047 68.0665 2.15747 68.0414 3.27383V4.28984H64.5757V1.58047H66.3713ZM66.3713 5.50655C67.4889 5.50655 68.0414 6.05845 68.0414 7.17481V19.2792H64.5757V5.50655H66.3713Z" fill="white"/>
<path id="&#60;Compound Path&#62;_5" d="M79.9706 19.2792C78.8279 19.1914 78.2503 18.652 78.2503 17.5607V10.4737C78.1749 9.04377 77.3838 8.34134 75.8519 8.34134C74.3199 8.34134 73.5289 9.04377 73.5037 10.4737V19.2792H69.9878V11.1761C69.9878 7.25007 71.9718 5.30585 75.9021 5.30585C79.8324 5.30585 81.7662 7.25007 81.7411 11.1761V19.2792H79.9706Z" fill="white"/>
<path id="&#60;Compound Path&#62;_6" d="M19.6719 24.8484C19.6719 24.4345 19.8728 24.2213 20.2746 24.2213H20.8773V30.1166H19.6719V24.8484Z" fill="white"/>
<path id="&#60;Compound Path&#62;_7" d="M25.3981 24.2213H26.0511L28.4495 28.2602V24.2213H29.6424V30.1166H28.3867L25.9758 26.0651V30.1166H24.7954V24.8484C24.7954 24.5097 25.0591 24.2213 25.3981 24.2213Z" fill="white"/>
<path id="&#60;Compound Path&#62;_8" d="M36.4357 27.5076H34.7657V30.1166H33.5728V24.8484C33.5728 24.5097 33.849 24.2213 34.188 24.2213H37.8547V25.2373H34.7657V26.5041H37.0761V26.893C37.0761 27.2317 36.7748 27.5076 36.4357 27.5076Z" fill="white"/>
<path id="&#60;Compound Path&#62;_9" fill-rule="evenodd" clip-rule="evenodd" d="M41.6089 27.1689C41.6089 25.3627 42.6888 24.1209 44.4342 24.1209C46.1922 24.1209 47.2721 25.3752 47.2721 27.1689C47.2721 28.9752 46.2298 30.2044 44.4342 30.2044C42.6386 30.2044 41.6089 28.9626 41.6089 27.1689ZM42.8269 27.1689C42.8269 28.3229 43.3292 29.1884 44.4342 29.1884C45.5392 29.1884 46.054 28.348 46.054 27.1689C46.054 26.0024 45.5392 25.162 44.4342 25.162C43.3292 25.162 42.8269 26.015 42.8269 27.1689Z" fill="white"/>
<path id="&#60;Compound Path&#62;_10" d="M51.504 24.2213H55.585V25.2624H53.8521V30.1166H52.6341V25.2624H50.8887V24.8484C50.8887 24.5097 51.1649 24.2213 51.504 24.2213Z" fill="white"/>
<path id="&#60;Compound Path&#62;_11" d="M59.4775 24.8484C59.4775 24.447 59.6784 24.2213 60.0803 24.2213H63.7469V25.2373H60.6704V26.5041H62.9684V26.893C62.9809 27.3069 62.7675 27.5076 62.3405 27.5076H60.6704V29.0254H63.7469V30.1166H59.4775V24.8484Z" fill="white"/>
<path id="&#60;Compound Path&#62;_12" d="M70.3017 30.2044C68.4935 30.2044 67.5894 29.0003 67.5894 27.1689C67.5894 25.2624 68.5437 24.1209 70.4147 24.1209C71.1304 24.1209 71.708 24.2965 72.1475 24.6603C72.5745 25.024 72.8005 25.5383 72.8633 26.178H72.135C71.8713 26.178 71.6829 26.0651 71.5699 25.8268C71.369 25.4003 70.9797 25.1871 70.4147 25.1871C69.2845 25.1871 68.7948 25.9773 68.7948 27.1689C68.7948 28.3229 69.272 29.1383 70.377 29.1383C71.1304 29.1383 71.5699 28.7118 71.6955 28.0595H72.8633C72.7503 29.4268 71.7959 30.2044 70.3017 30.2044Z" fill="white"/>
<path id="&#60;Compound Path&#62;_13" d="M77.3585 24.2213H77.9737V26.4163H80.3972V24.2213H81.6153V30.1166H80.3972V27.5076H77.9737V30.1166H76.7432V24.8484C76.7432 24.5097 77.0194 24.2213 77.3585 24.2213Z" fill="white"/>
<path id="&#60;Path&#62;_3" d="M39.7256 40.4774C39.7256 44.0774 36.7998 47 33.1834 47C29.5796 47 26.6538 44.0774 26.6538 40.4774C26.6538 36.865 29.5796 33.9424 33.1834 33.9424C36.7998 33.9424 39.7256 36.865 39.7256 40.4774Z" fill="white"/>
</g>
</svg>
